<svg xmlns="http://www.w3.org/2000/svg" version="1.1" xmlns:xlink="http://www.w3.org/1999/xlink" xmlns:svgjs="http://svgjs.dev/svgjs" width="1000" height="1000" viewBox="0 0 1000 1000"><rect width="1000" height="1000" fill="#ffffff"></rect><g transform="matrix(0.7,0,0,0.7,150,150)"><svg viewBox="0 0 280 280" data-background-color="#ffffff" preserveAspectRatio="xMidYMid meet" height="1000" width="1000" xmlns="http://www.w3.org/2000/svg" xmlns:xlink="http://www.w3.org/1999/xlink"><g id="tight-bounds" transform="matrix(1,0,0,1,0,0)"><svg viewBox="0 0 280 280" height="280" width="280"><g><svg viewBox="0 0 280 280" height="280" width="280"><g><svg viewBox="0 0 280 280" height="280" width="280"><g id="textblocktransform"><svg viewBox="0 0 280 280" height="280" width="280" id="textblock"><g><svg viewBox="0 0 280 280" height="280" width="280"><g transform="matrix(1,0,0,1,74.00336708925556,74.00336708925556)"><svg viewBox="0 0 131.99326582148888 131.99326582148888" height="131.99326582148888" width="131.99326582148888"><g><circle r="66" cx="65.99663291074444" cy="65.99663291074444" fill="#e8772e" data-fill-palette-color="accent"></circle></g></svg></g><g><path d="M133.669 28.326l-0.036-1.153 15.649-0.49-0.745-23.782-8.339 19.419-9.539-18.899 0.784 25.015-1.194-0.003-0.871-27.798 1.193-0.038 9.539 18.899 8.339-19.419 1.191-0.077 0.872 27.838z" fill="#ba3b0a" data-fill-palette-color="primary"></path><path d="M132.95 279.433l0.036-1.154 15.649 0.491 0.745-23.782-9.538 18.859-8.337-19.459-0.783 25.015-1.192-0.077 0.87-27.799 1.193 0.037 8.338 19.459 9.537-18.859 1.195-0.002-0.872 27.838z" fill="#ba3b0a" data-fill-palette-color="primary"></path><path d="M4.024 142.403c0-5.876 4.763-10.64 10.639-10.64 5.876 0 10.64 4.763 10.64 10.64 0 5.876-4.763 10.64-10.64 10.639-5.876 0-10.64-4.763-10.639-10.639z" fill="#ba3b0a" data-fill-palette-color="primary"></path><path d="M254.697 142.403c0-5.876 4.763-10.64 10.64-10.64 5.876 0 10.64 4.763 10.639 10.64 0 5.876-4.763 10.64-10.639 10.639-5.876 0-10.64-4.763-10.64-10.639z" fill="#ba3b0a" data-fill-palette-color="primary"></path></g></svg></g></svg></g></svg></g><g></g></svg></g><defs></defs></svg><rect width="280" height="280" fill="none" stroke="none" visibility="hidden"></rect></g></svg></g></svg>